HIERARCHY
ROOT Hips
{
	OFFSET -0.001795 -0.223333 0.028219
	CHANNELS 6 Xposition Yposition Zposition Zrotation Yrotation Xrotation 
	JOINT LeftUpLeg
	{
		OFFSET 0.069520 -0.091406 -0.006815
		CHANNELS 3 Zrotation Yrotation Xrotation
		JOINT LeftLeg
		{
			OFFSET 0.034277 -0.375199 -0.004496
			CHANNELS 3 Zrotation Yrotation Xrotation
			JOINT LeftFoot
			{
				OFFSET -0.013596 -0.397961 -0.043693
				CHANNELS 3 Zrotation Yrotation Xrotation
				JOINT LeftToe
				{
					OFFSET 0.026358 -0.055791 0.119288
					CHANNELS 3 Zrotation Yrotation Xrotation
					End Site
					{
						OFFSET 0.000000 0.000000 0.000000
					}
				}
			}
		}
	}
	JOINT RightUpLeg
	{
		OFFSET -0.067670 -0.090522 -0.004320
		CHANNELS 3 Zrotation Yrotation Xrotation
		JOINT RightLeg
		{
			OFFSET -0.038290 -0.382569 -0.008850
			CHANNELS 3 Zrotation Yrotation Xrotation
			JOINT RightFoot
			{
				OFFSET 0.015774 -0.398415 -0.042312
				CHANNELS 3 Zrotation Yrotation Xrotation
				JOINT RightToe
				{
					OFFSET -0.025372 -0.048144 0.123348
					CHANNELS 3 Zrotation Yrotation Xrotation
					End Site
					{
						OFFSET 0.000000 0.000000 0.000000
					}
				}
			}
		}
	}
	JOINT Spine
	{
		OFFSET -0.002533 0.108963 -0.026696
		CHANNELS 3 Zrotation Yrotation Xrotation
		JOINT Spine1
		{
			OFFSET 0.005487 0.135180 0.001092
			CHANNELS 3 Zrotation Yrotation Xrotation
			JOINT Spine2
			{
				OFFSET 0.001457 0.052922 0.025425
				CHANNELS 3 Zrotation Yrotation Xrotation
				JOINT Neck
				{
					OFFSET -0.002778 0.213870 -0.042857
					CHANNELS 3 Zrotation Yrotation Xrotation
					JOINT Head
					{
						OFFSET 0.005152 0.064970 0.051349
						CHANNELS 3 Zrotation Yrotation Xrotation
						End Site
						{
							OFFSET 0.000000 0.000000 0.000000
						}
					}
				}
				JOINT LeftShoulder
				{
					OFFSET 0.078845 0.121749 -0.034090
					CHANNELS 3 Zrotation Yrotation Xrotation
					JOINT LeftArm
					{
						OFFSET 0.090977 0.030469 -0.008868
						CHANNELS 3 Zrotation Yrotation Xrotation
						JOINT LeftForeArm
						{
							OFFSET 0.259612 -0.012772 -0.027456
							CHANNELS 3 Zrotation Yrotation Xrotation
							JOINT LeftHand
							{
								OFFSET 0.249234 0.008986 -0.001171
								CHANNELS 3 Zrotation Yrotation Xrotation
								End Site
								{
									OFFSET 0.000000 0.000000 0.000000
								}
							}
						}
					}
				}
				JOINT RightShoulder
				{
					OFFSET -0.081759 0.118833 -0.038615
					CHANNELS 3 Zrotation Yrotation Xrotation
					JOINT RightArm
					{
						OFFSET -0.096012 0.032551 -0.009143
						CHANNELS 3 Zrotation Yrotation Xrotation
						JOINT RightForeArm
						{
							OFFSET -0.253742 -0.013329 -0.021401
							CHANNELS 3 Zrotation Yrotation Xrotation
							JOINT RightHand
							{
								OFFSET -0.255298 0.007772 -0.005559
								CHANNELS 3 Zrotation Yrotation Xrotation
								End Site
								{
									OFFSET 0.000000 0.000000 0.000000
								}
							}
						}
					}
				}
			}
		}
	}
}
MOTION
Frames: 17
Frame Time: 0.050000
0.000000 0.941646 0.000000 -3.068431 16.396469 7.816905 16.559050 -0.778581 -28.271410 -4.875095 -0.001152 17.286772 2.224471 10.774373 14.202226 0.000000 0.000000 0.000000 -3.784474 0.663491 -11.225808 -0.932999 0.230946 18.746953 -2.319799 -5.747730 -1.654202 0.000000 0.000000 0.000000 2.031148 -2.387020 23.710282 -7.988485 2.739671 -21.745973 -1.892571 -0.789810 27.224170 8.121295 -1.908344 -25.967076 0.000000 0.000000 0.000000 -21.025443 -12.820986 3.547698 -36.639338 -24.577955 1.175931 19.596667 -44.398471 -6.624466 0.000000 0.000000 0.000000 24.534645 -3.415337 -0.762953 46.921220 9.034397 -4.238348 -2.809619 45.120519 2.660449 0.000000 0.000000 0.000000 
0.032509 0.942984 0.010247 -3.152021 16.322298 7.971369 15.651298 -0.883170 -27.377788 -6.501600 0.363532 16.716576 4.176752 13.626530 13.860442 0.000000 0.000000 0.000000 -5.931121 0.452932 -11.957768 -0.195731 -0.098969 21.721962 -1.727825 -4.467980 0.397359 0.000000 0.000000 0.000000 1.393716 -2.014696 22.131363 -8.434302 2.861387 -21.367215 -1.426306 -0.479876 28.203007 10.410392 -2.972603 -27.462942 0.000000 0.000000 0.000000 -20.285942 -11.614051 2.827225 -37.204405 -25.887041 1.463077 18.177670 -44.596070 -6.093104 0.000000 0.000000 0.000000 25.892995 -5.283422 -1.727992 47.904719 9.440106 -4.443259 -1.347676 44.419503 3.462470 0.000000 0.000000 0.000000 
0.066005 0.947267 0.020499 -3.377483 15.184420 6.905540 13.520050 -0.963244 -25.201456 -6.015537 0.271928 17.486160 3.669674 12.265836 12.249155 0.000000 0.000000 0.000000 -6.964539 0.360497 -13.860870 0.191973 -0.464543 28.425999 -0.854501 -3.610874 6.343655 0.000000 0.000000 0.000000 1.774863 -1.830983 20.366742 -8.226249 2.817324 -21.334529 -1.419076 0.129701 29.712067 12.019057 -4.087952 -26.790707 0.000000 0.000000 0.000000 -20.355071 -12.636088 3.379540 -36.006721 -27.128271 1.623602 15.063292 -42.448984 -4.541020 0.000000 0.000000 0.000000 25.991273 -4.745065 -1.249251 48.776318 9.030696 -4.779260 -2.599244 43.992868 3.021631 0.000000 0.000000 0.000000 
0.098011 0.951701 0.031838 -3.551040 13.639204 5.464308 12.637391 -0.847443 -22.890805 -6.627378 0.440114 18.625165 4.262571 12.516005 10.462814 0.000000 0.000000 0.000000 -8.247241 0.193471 -16.205529 0.503773 -0.776083 34.794040 -1.380181 -5.994257 11.671194 0.000000 0.000000 0.000000 1.113246 -1.687544 20.960157 -7.986997 2.737242 -21.927034 -0.889492 -0.169173 30.202319 11.507242 -3.748561 -28.067466 0.000000 0.000000 0.000000 -20.675544 -13.186051 4.056651 -34.180347 -26.806977 1.252167 13.660130 -39.739253 -3.601038 0.000000 0.000000 0.000000 23.879677 -4.513901 -1.483328 50.425371 8.391733 -4.877428 -1.891513 44.216402 3.183825 0.000000 0.000000 0.000000 
0.125677 0.956913 0.043347 -3.433760 14.235075 4.220923 10.477645 -0.951130 -19.347287 -6.604314 0.437544 16.427609 3.876285 11.740384 9.926787 0.000000 0.000000 0.000000 -8.200993 0.084197 -19.576680 0.952743 -1.505112 40.662478 -1.639927 -6.559475 11.649346 0.000000 0.000000 0.000000 2.095549 -1.991768 21.547074 -7.866700 2.739385 -21.723900 -1.721101 -2.072809 29.196398 10.863442 -3.699629 -27.621855 0.000000 0.000000 0.000000 -20.408962 -14.115779 5.030009 -33.224381 -26.808011 1.150062 12.664353 -36.670187 -2.854133 0.000000 0.000000 0.000000 22.525107 -4.138246 -1.749414 53.097343 7.029710 -5.239482 -0.416839 44.150209 3.567844 0.000000 0.000000 0.000000 
0.147771 0.962906 0.055459 -3.258775 13.410426 3.312899 9.451839 -0.838935 -15.986888 -6.714282 0.517597 14.871288 5.144011 13.682306 10.147624 0.000000 0.000000 0.000000 -7.413044 0.185066 -23.412448 1.929400 -2.163841 44.596656 -2.562067 -8.508883 11.771120 0.000000 0.000000 0.000000 1.887895 -1.953209 21.982111 -7.021753 2.479042 -22.924257 -2.834647 -3.090253 30.781031 11.491810 -4.113243 -29.084883 0.000000 0.000000 0.000000 -18.630223 -15.344072 6.128760 -32.160801 -27.165141 0.901516 13.572864 -33.742615 -2.798686 0.000000 0.000000 0.000000 23.495724 -4.431799 -2.372101 52.764380 7.448333 -5.157523 2.221001 44.745068 4.510307 0.000000 0.000000 0.000000 
0.165422 0.967305 0.067544 -3.516257 12.655527 2.343137 7.989118 -0.782943 -13.511421 -5.808428 0.369731 14.467108 4.886720 13.201280 10.194635 0.000000 0.000000 0.000000 -5.409350 0.654472 -24.524641 2.997996 -2.444063 43.088262 -3.660903 -10.510108 10.849933 0.000000 0.000000 0.000000 2.029263 -1.984522 22.306005 -6.164710 2.282338 -23.046697 -3.863612 -4.043331 30.182685 10.294128 -3.531567 -29.672205 0.000000 0.000000 0.000000 -17.189720 -14.635264 6.035544 -31.590794 -28.388127 1.074807 13.920976 -32.612255 -2.722566 0.000000 0.000000 0.000000 24.010392 -3.585939 -2.339826 53.477334 6.664838 -5.384508 2.805824 45.759736 4.653155 0.000000 0.000000 0.000000 
0.179326 0.970314 0.079842 -3.787559 11.989833 2.090935 7.185294 -0.696935 -11.223401 -5.677181 0.400054 12.765777 5.635548 13.992750 8.960931 0.000000 0.000000 0.000000 -3.062307 1.238528 -25.846535 4.856564 -2.839461 38.511861 -4.646359 -12.217510 8.713652 0.000000 0.000000 0.000000 2.410545 -1.968598 21.706655 -6.222134 2.292213 -22.940117 -3.999385 -4.827814 30.099632 10.424768 -3.700672 -30.075517 0.000000 0.000000 0.000000 -15.409724 -15.647548 6.681576 -31.522136 -29.304851 1.261531 16.645817 -31.881369 -3.353564 0.000000 0.000000 0.000000 24.681963 -4.627475 -3.420796 53.513533 6.552104 -5.346918 5.914813 46.300804 5.880865 0.000000 0.000000 0.000000 
0.191038 0.972156 0.093110 -4.161114 11.599717 2.265937 6.227536 -0.635639 -9.337091 -4.833101 0.291669 11.134314 5.105979 13.304628 9.751077 0.000000 0.000000 0.000000 -0.460774 1.879600 -26.433496 5.701634 -2.529109 31.880461 -4.704318 -12.471466 11.456226 0.000000 0.000000 0.000000 2.399114 -1.912024 21.333263 -5.665623 2.139713 -23.311452 -4.695448 -5.887875 29.879546 10.212126 -3.585637 -31.045528 0.000000 0.000000 0.000000 -13.462851 -15.552495 6.729629 -30.282957 -30.814705 1.428637 18.086646 -30.992027 -3.576044 0.000000 0.000000 0.000000 23.859785 -4.939895 -3.980735 54.613097 5.917148 -5.518943 7.617559 46.509169 6.419229 0.000000 0.000000 0.000000 
0.201752 0.971595 0.108179 -4.395328 11.315146 2.065716 5.379817 -0.517471 -6.774602 -4.921975 0.344618 9.389304 5.687242 13.737362 8.022597 0.000000 0.000000 0.000000 1.949096 2.407078 -25.957715 6.041110 -2.012938 24.555066 -4.989703 -12.968013 11.847133 0.000000 0.000000 0.000000 2.834422 -1.932379 20.812202 -6.136558 2.218418 -23.818439 -4.700045 -6.961662 30.316024 9.668843 -3.574006 -30.550789 0.000000 0.000000 0.000000 -11.620464 -16.335465 7.116235 -30.676120 -32.003507 1.738841 21.679349 -31.091254 -4.446855 0.000000 0.000000 0.000000 23.286666 -4.580963 -4.049030 54.871661 5.623192 -5.625763 8.737541 46.180962 6.650626 0.000000 0.000000 0.000000 
0.212106 0.971989 0.125102 -3.482230 11.033577 2.525706 3.470185 -0.382889 -4.312640 -4.010937 0.267638 6.347237 5.425776 13.371849 8.434630 0.000000 0.000000 0.000000 3.297857 2.593903 -24.526433 4.355721 -0.948799 16.296011 -5.557528 -14.065861 14.340303 0.000000 0.000000 0.000000 2.962113 -1.839044 19.935703 -6.992026 2.409766 -23.776978 -5.016371 -7.835659 30.162981 9.666173 -3.786999 -30.279017 0.000000 0.000000 0.000000 -10.409604 -16.712259 7.296640 -30.765647 -34.358804 2.352606 24.429774 -31.227915 -5.108369 0.000000 0.000000 0.000000 22.036794 -4.728833 -4.308424 55.735475 5.431773 -5.695920 9.798394 45.918611 6.869785 0.000000 0.000000 0.000000 
0.221828 0.970770 0.142918 -2.569304 10.680984 2.882637 1.705165 -0.269362 -2.919208 -3.467903 0.224976 5.011690 6.157156 14.650101 9.148349 0.000000 0.000000 0.000000 4.209853 2.663641 -23.244550 2.256526 -0.271822 11.741073 -6.062917 -15.002276 17.155983 0.000000 0.000000 0.000000 3.045206 -1.710751 18.819557 -6.723382 2.370581 -23.332498 -5.832364 -6.898289 29.881364 10.890185 -4.334170 -30.039784 0.000000 0.000000 0.000000 -10.687945 -17.981786 7.757060 -30.086897 -36.008663 2.681000 25.567162 -32.636802 -5.787032 0.000000 0.000000 0.000000 22.565466 -5.192811 -4.431385 55.285430 6.074118 -5.381712 8.676587 45.329941 6.417301 0.000000 0.000000 0.000000 
0.230558 0.968283 0.160102 -2.183705 11.139742 2.932963 0.031081 -0.158288 -1.910544 -2.597909 0.110454 5.092378 6.003707 14.219362 8.310727 0.000000 0.000000 0.000000 4.100903 2.500903 -21.890194 1.045129 0.000614 10.159466 -5.530632 -14.044275 17.915475 0.000000 0.000000 0.000000 4.068932 -1.877187 18.463595 -7.476481 2.557010 -23.165285 -5.925535 -7.727765 29.755064 10.691236 -4.283117 -30.317828 0.000000 0.000000 0.000000 -11.310632 -18.121252 7.998301 -30.172895 -38.573558 3.344816 25.980656 -33.891190 -6.095971 0.000000 0.000000 0.000000 22.342432 -4.661058 -4.279734 54.001854 6.507491 -5.059701 7.299995 45.147595 5.651029 0.000000 0.000000 0.000000 
0.237633 0.966512 0.175901 -2.470157 10.999445 3.053743 -0.831737 -0.149413 -2.002331 -1.960719 -0.030591 6.884309 6.121046 14.202673 7.470494 0.000000 0.000000 0.000000 4.439941 2.475776 -20.976947 0.972432 0.014439 9.177025 -5.856985 -14.653936 20.217690 0.000000 0.000000 0.000000 5.157107 -2.025213 17.973317 -7.479565 2.571565 -22.856713 -5.468003 -8.196043 29.578541 10.585570 -4.329843 -30.158569 0.000000 0.000000 0.000000 -12.759641 -19.341859 8.910448 -30.876851 -40.326167 3.953336 26.976372 -35.607422 -6.651948 0.000000 0.000000 0.000000 21.848334 -4.180477 -4.097626 52.814579 7.281940 -4.609414 6.640226 46.243291 5.406916 0.000000 0.000000 0.000000 
0.242819 0.966390 0.190668 -2.814754 10.325302 3.331044 -1.163362 -0.163528 -2.198780 -1.731938 -0.141188 8.995420 6.314883 14.481698 7.406105 0.000000 0.000000 0.000000 4.851241 2.562491 -20.976070 0.765589 0.068551 9.140976 -5.666431 -14.493400 20.938635 0.000000 0.000000 0.000000 6.230182 -2.203882 17.870343 -7.559212 2.566750 -22.995681 -5.241364 -8.821938 30.064157 10.566071 -4.453003 -30.661316 0.000000 0.000000 0.000000 -13.977582 -20.305994 9.833872 -30.424168 -41.366620 4.038036 27.411190 -35.877980 -6.749304 0.000000 0.000000 0.000000 21.653616 -3.715259 -4.092562 51.838527 8.723010 -3.972874 5.682132 46.516880 4.867441 0.000000 0.000000 0.000000 
0.246368 0.965725 0.205770 -2.973087 9.532317 3.751435 -0.846843 -0.346081 -4.023196 -2.004109 -0.301728 13.984462 6.147493 14.339459 7.952135 0.000000 0.000000 0.000000 4.792939 2.584019 -21.050182 1.067653 0.023038 9.598653 -5.396627 -14.229697 20.953363 0.000000 0.000000 0.000000 6.935012 -2.281413 17.561266 -7.265984 2.500947 -22.688937 -5.333482 -9.276426 29.603137 10.309021 -4.484342 -30.380364 0.000000 0.000000 0.000000 -14.659475 -21.038485 10.551772 -31.545997 -41.591720 4.414686 26.061660 -35.938938 -6.242477 0.000000 0.000000 0.000000 21.551153 -3.266279 -4.137940 50.889790 9.161477 -3.614561 5.841032 48.901574 4.990976 0.000000 0.000000 0.000000 
0.248461 0.963779 0.221955 -2.844350 7.253642 3.943766 0.469106 -0.527068 -6.009568 -5.185543 0.354450 19.686559 7.941349 17.392029 9.667745 0.000000 0.000000 0.000000 4.991234 2.653264 -20.764585 1.184237 0.048277 10.428303 -4.417754 -12.951163 18.732483 0.000000 0.000000 0.000000 6.296284 -2.079770 17.469348 -6.531349 2.343007 -21.640346 -5.105066 -9.223854 28.739279 9.851925 -4.365819 -30.594230 0.000000 0.000000 0.000000 -14.264396 -21.119784 10.789925 -32.580245 -41.749576 4.830016 23.611016 -33.430689 -4.996402 0.000000 0.000000 0.000000 22.590784 -2.729606 -4.457271 49.164052 10.190099 -2.893817 5.913080 51.044079 4.913076 0.000000 0.000000 0.000000 
